Coordinates
nRows=17
nColumns=24

# SIMM Motion File Header:
name Coordinates
datacolumns 24
datarows 17
otherdata 1
range 1.16767000000000000000 1.18367000000000000000
endheader
time	pelvis_tx	pelvis_ty	pelvis_tz	pelvis_tilt	pelvis_list	pelvis_rotation	hip_flexion_r	hip_adduction_r	hip_rotation_r	knee_angle_r	ankle_angle_r	subtalar_angle_r	mtp_angle_r	hip_flexion_l	hip_adduction_l	hip_rotation_l	knee_angle_l	ankle_angle_l	subtalar_angle_l	mtp_angle_l	lumbar_extension	lumbar_bending	lumbar_rotation
      1.16767000000000000000	      1.38533349580034000000	      0.89998726104074589000	     -0.21290487006040834000	      2.84060851882245750000	      0.64687623906128722000	     -2.16558602702022410000	     12.76800039565777900000	     -3.39044976975185670000	     -1.17688887121262150000	    -59.89841072649584000000	      6.41881906438844570000	      0.00000000000025555174	     -0.00000000000013845769	      1.43848230503935230000	      4.39708844265447230000	     -0.70776456701614010000	    -14.51606447395523600000	      9.09898151262344260000	      0.00000000000008273802	     -0.00000000000103925196	     -8.96697471845450700000	      0.49758546781971547000	      6.98799025723251610000
      1.16867000000000010000	      1.38590552633910250000	      0.90001062752347538000	     -0.21293859353871919000	      2.86090618987022840000	      0.64026700975415318000	     -2.15240324084805530000	     12.86199418974918100000	     -3.37131625010553200000	     -1.14139559016794780000	    -59.88131786462850000000	      6.45605544677503570000	      0.00000000000025585818	     -0.00000000000013901067	      1.35841768832987460000	      4.39715041749371770000	     -0.69632740630349210000	    -14.48189853673745000000	      9.11420006986947760000	      0.00000000000008235474	     -0.00000000000103974914	     -8.99308276613475140000	      0.50724383767822645000	      6.97948605805622520000
      1.16967000000000000000	      1.38647571803493810000	      0.90003217663046575000	     -0.21297172415708676000	      2.88136953910602140000	      0.63321196152265824000	     -2.13886359223904600000	     12.95467779928854800000	     -3.35154970589990910000	     -1.10658902540190260000	    -59.86048624036167400000	      6.49201965433002570000	      0.00000000000025616894	     -0.00000000000013953777	      1.27845753739028130000	      4.39673980039453570000	     -0.68415819780667175000	    -14.44833426007708100000	      9.13270331080307330000	      0.00000000000008198404	     -0.00000000000104028110	     -9.01962956269933790000	      0.51737347699976488000	      6.97090538488938540000
      1.17067000000000010000	      1.38704590973077370000	      0.90005372573745612000	     -0.21300485477545433000	      2.90183288834181940000	      0.62615691329116052000	     -2.12532394363003260000	     13.04736140882793400000	     -3.33178316169427990000	     -1.07178246063585150000	    -59.83965461609482600000	      6.52798386188501920000	      0.00000000000025647970	     -0.00000000000014006486	      1.19849738645067050000	      4.39632918329535190000	     -0.67198898930984674000	    -14.41476998341670600000	      9.15120655173667960000	      0.00000000000008161333	     -0.00000000000104081307	     -9.04617635926392970000	      0.52750311632130675000	      6.96232471172254460000
      1.17167000000000000000	      1.38761531073796160000	      0.90007459736746021000	     -0.21303770286169149000	      2.92250487414444080000	      0.61892633194433100000	     -2.11161811812253930000	     13.13923932890364200000	     -3.31177566376749780000	     -1.03733977540578340000	    -59.81698712378288000000	      6.56312705374020040000	      0.00000000000025679075	     -0.00000000000014056514	      1.11840631250254270000	      4.39573345522309640000	     -0.65953368654088818000	    -14.38139748695567000000	      9.17099548144438260000	      0.00000000000008125582	     -0.00000000000104138239	     -9.07306670600921090000	      0.53781121865567705000	      6.95369228409263580000
      1.17267000000000010000	      1.38818392105650190000	      0.90009479152047822000	     -0.21307026841579824000	      2.94338549651389770000	      0.61152021748216390000	     -2.09774611571655800000	     13.23031155951570500000	     -3.29152721211954980000	     -1.00326096971168810000	    -59.79248376342579300000	      6.59744922989557200000	      0.00000000000025710207	     -0.00000000000014103860	      1.03818431554586050000	      4.39495261617776660000	     -0.64679228949978640000	    -14.34821677069396300000	      9.19207009992620880000	      0.00000000000008091151	     -0.00000000000104198906	     -9.10030060293519760000	      0.54829778400288276000	      6.94500810199965550000
      1.17367000000000000000	      1.38875216443994720000	      0.90011467153503577000	     -0.21310269997135745000	      2.96437554925443040000	      0.60405371378332484000	     -2.08378621437557500000	     13.32096387152771700000	     -3.27119703315890660000	     -0.96938836754042779000	    -59.76705597276044600000	      6.63132153090567480000	      0.00000000000025740254	     -0.00000000000014149035	      0.95788199737174351000	      4.39410456723593690000	     -0.63393636693798761000	    -14.31509226135416300000	      9.21328711916316050000	      0.00000000000008057697	     -0.00000000000104262935	     -9.12770589724149950000	      0.55884371491423768000	      6.93628311075331090000
      1.17467000000000010000	      1.38931930701810740000	      0.90013360913421236000	     -0.21313472953127396000	      2.98569389310820950000	      0.59640604237446193000	     -2.06956261622957130000	     13.41035642773964500000	     -3.25062167226015840000	     -0.93613437593764548000	    -59.73885489117027000000	      6.66384420647999320000	      0.00000000000025767043	     -0.00000000000014187698	      0.87733871554524978000	      4.39305488860460880000	     -0.62073686781408433000	    -14.28213637278006200000	      9.23493134066551310000	      0.00000000000008027174	     -0.00000000000104337054	     -9.15562538368877910000	      0.56956774251805065000	      6.92743569204686600000
      1.17567000000000000000	      1.38988644959626710000	      0.90015254673338896000	     -0.21316675909119051000	      3.00701223696198380000	      0.58875837096560080000	     -2.05533901808357070000	     13.49974898395155500000	     -3.23004631136141460000	     -0.90288038433487050000	    -59.71065380958010100000	      6.69636688205430360000	      0.00000000000025793833	     -0.00000000000014226361	      0.79679543371877382000	      4.39200520997328070000	     -0.60753736869018415000	    -14.24918048420596900000	      9.25657556216786230000	      0.00000000000007996652	     -0.00000000000104411172	     -9.18354487013605160000	      0.58029177012186117000	      6.91858827334042380000
      1.17667000000000010000	      1.39045246359884510000	      0.90017028871560989000	     -0.21319840270145543000	      3.02846905097908440000	      0.58098835617752653000	     -2.04080316249016440000	     13.58804028882474100000	     -3.20930268602038020000	     -0.87036512178808745000	    -59.67959858133490800000	      6.72762671356383370000	      0.00000000000025819289	     -0.00000000000014262324	      0.71625439647843103000	      4.39079285376754670000	     -0.59403793852723163000	    -14.21640910486807000000	      9.27692564203825580000	      0.00000000000007968056	     -0.00000000000104493947	     -9.21175589130499080000	      0.59114028452547929000	      6.90955040555226230000
      1.17767000000000000000	      1.39101810140956190000	      0.90018763215884556000	     -0.21322991766183647000	      3.04997202171728830000	      0.57317756026304989000	     -2.02616322108095970000	     13.67596450991832500000	     -3.18850297253192090000	     -0.83809610225998032000	    -59.64759197087137500000	      6.75846559705175660000	      0.00000000000025844300	     -0.00000000000014297386	      0.63571410743348988000	      4.38952627170367830000	     -0.58043853135126466000	    -14.18369922860891600000	      9.29684434136465220000	      0.00000000000007940103	     -0.00000000000104579608	     -9.24006409071447620000	      0.60203029452903045000	      6.90044905473686400000
      1.17867000000000010000	      1.39158336800754220000	      0.90020448349214532000	     -0.21326129726657228000	      3.07143974144343580000	      0.56534447381835096000	     -2.01142412434372190000	     13.76361826349269200000	     -3.16766516708607870000	     -0.80607922894508244000	    -59.61467126085138800000	      6.78899999514750880000	      0.00000000000025869374	     -0.00000000000014333292	      0.55527865487134054000	      4.38821831408825250000	     -0.56677285235498998000	    -14.15108007867331500000	      9.31608716128708460000	      0.00000000000007911976	     -0.00000000000104664357	     -9.26837314203833350000	      0.61294399386743814000	      6.89128070869763400000
      1.17967000000000000000	      1.39214752096731200000	      0.90021985849563702000	     -0.21329227080437238000	      3.09280170813339520000	      0.55744451578299170000	     -1.99638756162239380000	     13.85046061450931500000	     -3.14671308576810340000	     -0.77481879426985123000	    -59.57900825216203300000	      6.81862093706670700000	      0.00000000000025894635	     -0.00000000000014371729	      0.47515771175764249000	      4.38678622981815810000	     -0.55290835789780102000	    -14.11873310770840800000	      9.33330234299756970000	      0.00000000000007883330	     -0.00000000000104746375	     -9.29668474910527460000	      0.62392876121040697000	      6.88191137698691510000
      1.18067000000000010000	      1.39271167392708170000	      0.90023523349912871000	     -0.21332324434217248000	      3.11416367482335940000	      0.54954455774763056000	     -1.98135099890106250000	     13.93730296552595700000	     -3.12576100445012320000	     -0.74355835959461314000	    -59.54334524347267200000	      6.84824187898591230000	      0.00000000000025919897	     -0.00000000000014410165	      0.39503676864392662000	      4.38535414554806290000	     -0.53904386344060895000	    -14.08638613674349400000	      9.35051752470806010000	      0.00000000000007854683	     -0.00000000000104828392	     -9.32499635617222470000	      0.63491352855337824000	      6.87254204527619360000
      1.18167000000000000000	      1.39327479268619440000	      0.90024900739461111000	     -0.21335376911862936000	      3.13527343486063130000	      0.54160402757860848000	     -1.96608477314385490000	     14.02356411829780600000	     -3.10470794651843240000	     -0.71298369976311671000	    -59.50517854966403100000	      6.87733487851225170000	      0.00000000000025943606	     -0.00000000000014447068	      0.31541508821459652000	      4.38381941420612180000	     -0.52510636445113312000	    -14.05441667412673100000	      9.36643201872106350000	      0.00000000000007826312	     -0.00000000000104910031	     -9.35312964065363770000	      0.64594034419901103000	      6.86301592301713990000
      1.18267000000000010000	      1.39383756671175460000	      0.90026224758742368000	     -0.21338414430797184000	      3.15629912601367700000	      0.53364997336503006000	     -1.95074199304134920000	     14.10963153832141100000	     -3.08362122971549720000	     -0.68263763154619617000	    -59.46617729414894200000	      6.90625189724097500000	      0.00000000000025966797	     -0.00000000000014483460	      0.23595982868004117000	      4.38225046717356290000	     -0.51114453061755827000	    -14.02257304762601100000	      9.38191295016823550000	      0.00000000000007798032	     -0.00000000000104991544	     -9.38120348427321100000	      0.65698117594553451000	      6.85343753724197140000
      1.18367000000000000000	      1.39439967137196110000	      0.90027431872917929000	     -0.21341421398594629000	      3.17708335242312280000	      0.52563389770634283000	     -1.93524465501995910000	     14.19538983724163300000	     -3.06242774543937470000	     -0.65277449742920834000	    -59.42554353291633600000	      6.93491573418046240000	      0.00000000000025990696	     -0.00000000000014520573	      0.15694876998478968000	      4.38057345580037440000	     -0.49715378316802522000	    -13.99110245706603100000	      9.39752478556634860000	      0.00000000000007769284	     -0.00000000000105070201	     -9.40907174510928530000	      0.66809277858787119000	      6.84375086776489370000
